<?xml version="1.0" standalone="no"?>
<!DOCTYPE svg PUBLIC "-//W3C//DTD SVG 20010904//EN"
 "http://www.w3.org/TR/2001/REC-SVG-20010904/DTD/svg10.dtd">
<svg version="1.0" xmlns="http://www.w3.org/2000/svg"
 width="1397.000000pt" height="178.000000pt" viewBox="0 0 1397.000000 178.000000"
 preserveAspectRatio="xMidYMid meet">

<g transform="translate(0.000000,178.000000) scale(0.100000,-0.100000)"
fill="#000000" stroke="none">
<path d="M1921 1012 c-68 -191 -126 -350 -130 -354 -4 -4 -56 133 -116 305
-144 415 -126 377 -180 377 -25 0 -45 -4 -45 -10 0 -31 299 -840 310 -840 7 0
51 117 191 517 35 101 66 183 69 183 3 0 33 -82 66 -183 84 -247 187 -517 198
-514 6 2 294 743 321 826 5 16 2 21 -12 21 -16 0 -42 -60 -149 -345 -71 -190
-131 -345 -134 -345 -3 0 -27 62 -53 138 -27 75 -78 220 -114 322 -36 102 -69
200 -74 218 -6 17 -13 32 -17 32 -4 0 -63 -156 -131 -348z"/>
<path d="M6511 1003 c-79 -192 -159 -383 -178 -426 -31 -75 -32 -78 -12 -75
17 2 33 31 79 143 l58 140 170 3 170 2 50 -127 c27 -71 52 -136 55 -145 5 -14
18 -18 61 -18 l54 0 -118 278 c-64 152 -143 343 -176 424 -32 82 -61 148 -64
148 -3 0 -70 -156 -149 -347z m194 17 c37 -91 70 -171 72 -177 4 -10 -29 -13
-147 -13 -141 0 -152 1 -146 18 51 137 141 350 147 345 4 -5 37 -82 74 -173z"/>
<path d="M7994 1335 c-170 -37 -294 -170 -325 -349 -23 -136 9 -260 93 -351
135 -148 332 -186 572 -111 69 21 71 23 77 59 3 20 4 37 3 37 -2 0 -25 -14
-51 -30 -186 -118 -426 -79 -531 88 -40 63 -62 141 -62 222 0 169 80 314 209
377 48 24 68 28 141 28 104 -1 165 -25 226 -91 l42 -45 12 37 c12 35 11 39
-13 60 -51 43 -198 85 -297 83 -19 0 -63 -7 -96 -14z"/>
<path d="M8905 1343 c-245 -36 -406 -253 -374 -506 16 -127 84 -230 189 -286
85 -46 149 -61 257 -61 294 0 476 206 434 494 -22 156 -122 278 -271 333 -55
21 -179 35 -235 26z m203 -63 c123 -54 202 -197 202 -366 0 -286 -246 -470
-477 -358 -68 33 -146 118 -172 190 -43 114 -35 267 20 377 42 84 128 154 216
177 55 13 156 4 211 -20z"/>
<path d="M11003 1335 c-84 -18 -153 -57 -212 -120 -59 -62 -86 -113 -106 -197
-56 -239 62 -445 295 -514 77 -23 206 -21 305 4 129 33 135 36 135 77 l0 35
-47 -31 c-123 -78 -277 -89 -399 -29 -118 58 -183 163 -192 309 -8 146 28 254
115 343 66 68 128 92 233 93 74 0 93 -4 143 -28 33 -17 71 -46 89 -68 l32 -40
15 37 c14 37 14 38 -15 61 -56 45 -195 84 -294 82 -19 0 -63 -7 -97 -14z"/>
<path d="M588 908 c-4 -507 -2 -492 -101 -584 -68 -63 -50 -67 40 -9 61 40 97
84 126 157 21 51 22 69 25 461 l3 407 -45 0 -45 0 -3 -432z"/>
<path d="M900 920 l0 -420 242 2 c208 3 243 5 246 18 2 14 -22 15 -198 12
l-200 -4 0 192 0 193 145 -6 145 -6 0 22 c0 22 -1 22 -145 19 l-145 -4 0 181
0 181 171 0 c157 0 170 1 167 18 -3 15 -23 17 -216 20 l-212 2 0 -420z"/>
<path d="M2727 1333 c-4 -3 -7 -192 -7 -420 l0 -413 244 0 c213 0 245 2 250
16 3 9 6 17 6 18 0 1 -90 0 -200 -2 l-200 -4 0 192 0 193 145 -6 145 -6 0 22
c0 22 -1 22 -145 19 l-145 -4 0 181 0 181 170 0 c94 0 170 2 170 4 0 2 -3 11
-6 20 -5 14 -34 16 -213 16 -114 0 -211 -3 -214 -7z"/>
<path d="M3377 1333 c-4 -3 -7 -192 -7 -420 l0 -413 249 0 c230 0 249 1 253
18 5 17 -8 18 -196 17 l-201 0 -3 403 -2 402 -43 0 c-24 0 -47 -3 -50 -7z"/>
<path d="M4030 920 l0 -420 244 0 c225 0 244 1 248 18 5 17 -8 18 -196 17
l-201 0 0 185 0 185 145 0 c136 0 145 1 145 19 0 18 -8 19 -148 17 l-147 -2 2
181 3 182 173 -2 c171 -1 173 -1 162 20 -10 19 -20 20 -220 20 l-210 0 0 -420z"/>
<path d="M4680 920 l0 -420 179 0 c204 0 262 8 347 50 121 59 195 167 212 310
24 198 -56 352 -223 431 -81 38 -160 49 -352 49 l-163 0 0 -420z m312 371
c173 -23 297 -143 330 -320 9 -48 9 -79 0 -132 -22 -126 -82 -208 -191 -261
-63 -31 -73 -32 -207 -36 l-141 -4 -6 373 c-3 205 -3 377 -1 381 7 10 131 10
216 -1z"/>
<path d="M5880 920 l0 -420 45 0 45 0 0 207 0 206 145 -6 145 -6 0 22 c0 22
-1 22 -145 19 l-145 -3 0 180 0 181 171 0 c157 0 170 1 167 18 -3 15 -23 17
-216 20 l-212 2 0 -420z"/>
<path d="M7160 920 l0 -420 244 0 c213 0 245 2 250 16 3 9 6 16 6 17 0 1 -91
2 -202 2 l-203 0 -3 403 -2 402 -45 0 -45 0 0 -420z"/>
<path d="M9554 1309 c3 -17 6 -206 6 -420 0 -382 0 -389 20 -389 19 0 20 8 22
354 l3 355 88 -107 c251 -302 513 -611 520 -612 4 0 6 190 5 422 -3 393 -4
423 -20 426 -17 3 -18 -18 -18 -333 0 -191 -4 -335 -9 -333 -9 3 -503 585
-544 639 -15 21 -29 29 -50 29 -28 0 -29 -2 -23 -31z"/>
<path d="M11590 920 l0 -420 244 0 c213 0 245 2 250 16 3 9 6 17 6 18 0 1 -90
0 -200 -2 l-200 -4 0 278 c0 154 -3 336 -7 407 l-6 127 -44 0 -43 0 0 -420z"/>
<path d="M12172 1028 l3 -313 26 -55 c34 -70 80 -117 149 -149 45 -21 70 -25
140 -26 77 0 90 3 140 31 35 19 70 51 95 84 l40 53 9 -76 9 -77 39 0 38 0 2
320 c2 176 3 364 3 418 l0 97 -47 3 -47 3 -3 -308 -3 -308 -30 -53 c-55 -101
-165 -148 -281 -123 -48 11 -68 22 -105 60 -74 73 -79 101 -79 443 l0 288 -51
0 -50 0 3 -312z"/>
<path d="M13070 919 l0 -421 168 4 c160 3 169 4 225 32 102 49 149 148 126
259 -16 71 -64 119 -144 142 l-59 17 30 15 c76 39 114 100 114 183 0 59 -17
97 -60 134 -50 42 -118 56 -267 56 l-133 0 0 -421z m212 380 c105 -22 148 -73
148 -177 0 -108 -61 -161 -197 -170 l-73 -5 0 182 0 181 35 0 c18 0 58 -5 87
-11z m127 -412 c78 -52 104 -167 59 -257 -34 -68 -95 -95 -213 -95 l-90 0 -3
194 -2 193 103 -4 c94 -3 108 -6 146 -31z"/>
</g>
</svg>
